PathFileType	4	(X/Y/Z)	C:/Users/beibeiliu/ov580/test_trc\sequence.26_training_dense_left.trc
DataRate	CameraRate	NumFrames	NumMarkers	Units	OrigDataRate	OrigDataStartFrame	OrigNumFrames
120	120	22	19	mm	120	25	74
Frame#	Time	ThumbCMC			ThumbMCP			ThumbIP			ThumbTip			IndexMCP			IndexPIP			IndexTip			MiddleMCP			MiddlePIP			MiddleTip			RingMCP			RingPIP			RingTip			PinkyMCP			PinkyPIP			PinkyTip			BackHand1			BackHand2			BackHand3	
		X0	Y0	Z0	X1	Y1	Z1	X2	Y2	Z2	X3	Y3	Z3	X4	Y4	Z4	X5	Y5	Z5	X6	Y6	Z6	X7	Y7	Z7	X8	Y8	Z8	X9	Y9	Z9	X10	Y10	Z10	X11	Y11	Z11	X12	Y12	Z12	X13	Y13	Z13	X14	Y14	Z14	X15	Y15	Z15	X16	Y16	Z16	X17	Y17	Z17	X18	Y18	Z18	
24	0.2	-186.504	59.1309	18.7988	-180.19	89.5406	14.8654	-169.463	104.913	11.3001	-158.125	125.446	5.48086	-138.684	74.1201	-28.8736	-121.701	93.782	-31.7384	-116.126	118.1	-16.5928	-119.441	67.4887	-22.5317	-102.115	91.8689	-21.4142	-103.204	114.194	5.22222	-105.995	56.9155	-9.34589	-94.9153	81.3472	-10.9353	-96.0051	100.719	5.63907	-100.821	48.2393	6.32893	-88.5098	64.2048	4.46749	-91.4444	88.6174	8.25371	-141.082	26.7157	9.42367	-152.21	13.4114	27.1149	-165.814	29.685	9.47268	
25	0.208333	-179.063	44.8101	21.785	-183.366	74.3376	9.51511	-175.812	94.3258	-4.9768	-167.34	111.448	-13.058	-138.587	55.1232	-36.9104	-127.795	79.3596	-46.0068	-126.736	104.407	-35.3931	-121.563	53.4552	-33.9936	-111.683	81.0831	-41.3212	-112.939	105.026	-20.4795	-106.5	46.6409	-19.5398	-98.1812	74.0922	-27.4514	-103.416	97.0556	-13.2438	-101.262	43.3334	-3.0982	-91.5534	62.3406	-12.2264	-96.324	84.8744	-9.52252	-131.058	18.3643	16.083	-145.408	9.53658	30.3786	-159.124	19.9618	12.2294	
26	0.216667	-182.932	31.3523	20.0397	-185.952	53.961	0.27581	-180.459	65.4077	-18.1166	-173.426	78.4848	-32.8592	-154.684	21.195	-38.5313	-140.412	37.623	-57.5329	-141.024	64.3008	-57.7002	-128.59	21.3735	-38.198	-125.627	41.4932	-57.1287	-126.574	71.3566	-51.6714	-118.569	20.6026	-27.9172	-113.139	41.8631	-45.717	-119.871	68.4896	-41.807	-105.654	23.3689	-7.15573	-104.199	38.0435	-28.2578	-107.678	59.0403	-34.0416	-129.171	7.91071	15.9531	-139.367	1.8195	43.2705	-160.498	5.11058	18.3901	
27	0.225	-191.616	14.3502	21.1438	-200.836	28.262	-4.79306	-201.589	28.9529	-31.9668	-197.982	35.1609	-52.9624	-172.964	-20.1386	-30.1699	-170.401	-13.7024	-60.7943	-165.38	10.4541	-69.6762	-154.641	-22.7443	-36.6935	-146.973	-11.5497	-62.2928	-153.4	20.5809	-69.8375	-135.378	-17.4556	-24.9847	-134.366	-5.91999	-53.265	-138.55	15.3763	-61.0176	-121.347	-7.92668	-11.9153	-123.588	-4.89545	-33.9927	-130.664	15.0444	-48.4651	-147.422	-9.81262	20.1828	-148.827	-2.66507	45.9267	-171.229	-11.982	24.9163	
28	0.233333	-211.099	14.6459	19.0179	-212.942	21.5723	-6.02948	-217.52	18.138	-30.4779	-216.733	16.7452	-51.3147	-203.716	-36.0224	-22.6771	-200.485	-37.1269	-48.8676	-195.262	-13.8932	-70.1961	-187.641	-40.0691	-23.8251	-184.46	-39.2763	-56.6633	-179.253	-16.0918	-70.2467	-167.872	-38.655	-22.2198	-170.133	-36.3866	-49.6039	-171.157	-17.6929	-63.8012	-152.502	-28.696	-10.7668	-152.299	-30.4419	-36.294	-158.386	-15.7438	-54.0852	-165.48	-21.5008	21.6222	-167.769	-4.13908	47.3634	-192.46	-12.9641	33.7324	
29	0.241667	-219.929	26.9252	22.3583	-223.941	27.4002	-7.26036	-233.747	28.7957	-29.0944	-233.474	23.693	-51.695	-233.08	-28.5054	-13.4322	-236.087	-33.439	-41.8833	-229.364	-15.2618	-65.2954	-218.39	-42.23	-18.1034	-219.85	-42.9148	-48.0794	-211.093	-18.5284	-68.1714	-202.421	-42.0422	-15.294	-204.844	-43.4943	-42.0948	-199.399	-28.6375	-61.0281	-185.041	-36.1607	-7.53341	-188.694	-42.459	-32.1599	-191.821	-28.3516	-50.6358	-193.15	-18.0343	27.4358	-186.441	-4.28885	45.2983	-213.525	-4.35687	37.3408	
30	0.25	-227.921	30.4716	22.7003	-234.624	39.3413	-6.6355	-237.892	37.3203	-25.6316	-242.838	32.4871	-49.5449	-266.247	-12.2476	-11.6024	-265.699	-18.9008	-34.7906	-253.033	-6.31673	-61.8832	-251.02	-29.2715	-11.4714	-255.07	-33.0871	-43.141	-239.96	-17.2532	-62.6305	-238.466	-38.4356	-10.9175	-240.24	-39.8997	-39.0659	-235.588	-22.2763	-56.9261	-218.614	-39.7141	-5.23475	-224.643	-43.9334	-25.3871	-225.532	-30.5292	-50.1338	-217.338	-22.7259	29.0487	-204.045	-7.39658	48.2263	-231.194	1.31263	39.693	
31	0.258333	-235.774	36.3725	26.5313	-238.845	46.9318	-4.14483	-245.28	45.4416	-22.5455	-251.532	47.6476	-46.5765	-287.498	5.84832	-7.76893	-293.582	5.64707	-31.871	-280.755	12.0662	-57.266	-285.127	-11.721	-10.9791	-288.032	-12.0438	-39.7346	-269.908	-0.721313	-61.7897	-268.919	-27.1552	-7.00305	-277.152	-25.8721	-31.1311	-266.38	-13.6311	-53.9973	-250.826	-35.7464	-1.01634	-262.532	-38.0205	-24.7003	-261.621	-27.6429	-42.8856	-245.353	-17.326	31.8941	-227.191	-7.23241	49.9239	-251.249	12.4249	40.6186	
32	0.266667	-241.948	36.6958	27.5255	-240.577	45.6421	-0.0935395	-245.798	51.8758	-21.8071	-252.924	50.3232	-43.0612	-298.1	30.0869	-1.27428	-306.342	27.8422	-29.7626	-293.848	28.397	-54.2432	-301.877	7.13667	-6.05073	-310.154	8.51741	-35.3601	-289.18	14.068	-57.8734	-295.802	-8.19219	-3.51845	-303.473	-8.15708	-28.5722	-289.949	-0.517505	-50.2713	-281.905	-26.6145	-0.374689	-293.235	-19.8656	-20.6383	-287.098	-11.3253	-43.06	-269.474	-11.5224	32.9406	-248.237	-7.78068	51.4784	-262.217	12.9669	42.6714	
33	0.275	-241.12	37.5266	30.3614	-238.324	44.7087	0.621446	-243.339	51.7253	-23.0805	-246.354	52.4145	-40.2315	-298.895	42.9172	-1.5595	-307.129	46.1306	-28.2532	-294.012	45.0504	-52.8893	-309.768	29.1321	-6.76069	-315.518	31.3021	-33.8368	-296.621	29.3688	-56.2481	-308.744	10.9358	-4.47263	-313.802	13.6422	-27.9942	-297.476	16.0025	-50.9013	-303.387	-10.7092	-1.26419	-308.009	-1.74318	-20.5732	-303.71	2.07534	-42.0221	-283.407	1.16827	34.1099	-267.345	-4.46319	51.049	-272.112	20.4692	44.9219	
34	0.283333	-239.068	34.0122	31.2075	-230.397	41.2259	2.18814	-233.804	47.8171	-18.5524	-238.958	51.7612	-40.2207	-289.654	58.7014	-1.06967	-296.535	62.5899	-31.899	-287.761	58.463	-51.6933	-305.835	47.9145	-7.8075	-308.509	50.1669	-37.2146	-287.258	41.7883	-58.6448	-309.913	26.1698	-4.37243	-311.315	36.4256	-31.294	-295.355	31.4836	-52.6403	-305.629	4.07722	0.211783	-311.905	17.2089	-22.8934	-302.736	22.9679	-42.6964	-287.978	11.8469	33.2511	-272.608	-0.388442	52.9171	-272.738	26.6353	43.9305	
35	0.291667	-231.442	34.5514	30.5345	-226.05	42.1942	-0.414704	-226.64	47.884	-19.1456	-228.946	52.3715	-41.498	-276.318	73.7071	-3.75775	-278.13	81.1273	-34.0095	-270.457	72.6888	-53.493	-295.966	62.8313	-11.9577	-292.355	69.8429	-39.961	-274.753	57.9815	-61.0538	-302.812	44.7865	-9.10903	-300.649	54.732	-36.544	-285.767	48.9507	-53.9618	-306.013	27.3138	-6.62571	-304.92	37.7861	-27.9252	-296.949	38.5219	-45.6527	-289.853	25.0073	28.7211	-278.227	10.4124	49.2695	-266.401	34.7196	41.4863	
36	0.3	-222.596	39.7421	27.6515	-214.747	44.3954	-2.39436	-211.894	49.8654	-21.7886	-207.516	56.0081	-46.0522	-256.003	85.1803	-11.2621	-256.582	93.5116	-35.7705	-247.419	82.4887	-59.6656	-271.977	81.736	-16.8009	-267.67	89.9594	-44.2622	-257.063	70.3957	-66.9108	-284.541	65.8829	-15.5007	-280.577	75.3125	-40.0204	-262.223	64.2326	-62.3008	-290.518	51.6363	-15.0238	-286.332	60.6171	-33.6957	-277.428	59.081	-55.4836	-281.432	41.1016	22.5387	-274.902	29.7911	42.3834	-257.182	49.018	35.6677	
37	0.308333	-209.829	47.705	21.5105	-196.182	48.0165	-6.70166	-191.132	49.483	-25.1848	-185.716	52.603	-49.3264	-223.992	99.4278	-23.3443	-219.776	103.323	-48.5067	-210.497	87.7795	-68.5057	-242.145	96.5008	-26.4986	-235.617	101.49	-55.8575	-228.854	78.9079	-74.7781	-258.368	87.4472	-26.3403	-246.38	92.9738	-53.7504	-238.125	74.3334	-73.3843	-270.913	72.576	-21.346	-264.161	81.2099	-43.757	-250.671	80.3254	-60.2559	-258.469	65.3177	16.1425	-264.292	52.4032	34.8417	-234.579	68.9983	28.0817	
38	0.316667	-193.649	58.0547	18.2505	-175.391	47.9788	-6.9084	-169.002	48.3873	-29.093	-170.506	46.9799	-49.6491	-192.98	103.109	-29.4877	-185.565	103.796	-58.8979	-186.582	83.6987	-77.076	-207.607	106.53	-36.5108	-204.877	104.382	-67.6043	-203.295	75.3253	-82.9085	-226.47	101.992	-37.1785	-219.984	100.618	-63.4176	-213.868	80.2634	-78.6337	-243.347	91.2976	-32.2537	-239.267	94.5974	-53.7421	-227.181	84.0319	-74.9363	-238.351	84.3225	6.50486	-238.379	75.7408	28.7664	-211.157	84.4507	22.1505	
39	0.325	-175.31	65.0201	15.7861	-163.942	48.9334	-5.32394	-155.5	41.8587	-30.8013	-156.752	35.9624	-54.873	-169.45	99.163	-45.5681	-166.059	93.0301	-67.7865	-168.633	65.2319	-81.5536	-188.348	104.934	-51.8556	-185.14	92.3925	-78.4722	-189.254	66.2715	-85.7797	-203.327	101.91	-46.1857	-200.733	92.3061	-72.847	-200.226	66.2844	-82.7928	-222.636	97.5673	-41.2326	-217.737	92.7787	-62.4778	-210.32	73.4936	-76.0299	-211.65	98.073	1.00614	-218.124	91.3348	22.9897	-187.49	92.1222	16.2981	
40	0.333333	-155.845	62.4082	15.8758	-151.115	42.2966	-3.8488	-146.164	29.6388	-23.5139	-148.452	17.3421	-43.7061	-155.951	84.3265	-51.8749	-154.581	67.5763	-71.5423	-163.532	42.2622	-74.1087	-173.732	89.4052	-57.4647	-174.189	71.8202	-80.0444	-177.148	40.6938	-76.4331	-192.359	90.7046	-52.8467	-189.574	74.0381	-74.5836	-189.763	44.3177	-72.093	-207.122	89.5943	-41.7067	-207.364	77.9802	-63.6412	-199.162	54.9437	-69.5523	-197.861	99.6232	-8.13712	-199.159	98.2007	19.6694	-172.459	95.5864	9.8254	
41	0.341667	-143.951	59.7423	21.3056	-142.981	34.2764	10.5922	-137.469	12.9183	-9.01398	-143.27	-0.258166	-25.1384	-143.585	58.9088	-46.219	-144.713	37.4647	-62.1043	-154.76	12.8687	-51.0089	-164.171	60.4063	-56.8934	-164.906	34.1701	-69.4972	-173.858	9.56839	-50.9699	-183.757	63.9289	-51.2987	-178.946	38.8477	-63.2359	-178.925	15.673	-48.1116	-200.621	64.9159	-43.2109	-196.463	43.138	-54.341	-192.097	18.9852	-43.0014	-184.743	87.0985	-9.73726	-184.556	93.3496	15.6251	-158.872	87.8766	7.95603	
42	0.35	-140.979	54.3996	26.0056	-128.674	27.5575	26.0506	-127.874	5.22048	11.8727	-128.79	-12.8079	4.50789	-131.567	32.2943	-33.3857	-129.798	1.95181	-35.2651	-135.132	-11.803	-8.95496	-152.323	22.0065	-42.3114	-150.256	-6.31209	-40.4234	-149.988	-17.6289	-8.64656	-172.952	23.5843	-37.2286	-167.5	-5.20313	-34.8539	-161.931	-13.6376	-10.0733	-190.22	23.9806	-29.8926	-179.968	1.07748	-28.1612	-171.54	-8.1978	-6.32854	-182.195	63.7674	-7.28828	-186.684	77.2738	13.1065	-159.365	74.3524	5.9757	
43	0.358333	-144.987	55.5104	31.0885	-129.626	30.8047	35.457	-118.072	11.9257	34.0855	-112.123	-14.0554	29.6217	-129.332	13.277	-19.2567	-113.928	-7.70621	-11.6232	-117.528	-14.1495	17.1308	-144.836	1.73822	-21.4049	-127.897	-23.5425	-8.64178	-132.159	-24.0739	20.7604	-158.737	-6.01031	-18.2043	-147.41	-25.0562	-7.12827	-145.022	-25.5088	22.5237	-174.773	-6.6783	-10.3382	-163.179	-23.3865	0.542172	-153.777	-21.6472	21.9796	-182.593	38.1105	-5.42017	-197.86	55.3977	10.911	-166.379	61.2643	5.68332	
44	0.366667	-160.074	56.2682	31.5774	-131.093	43.756	43.916	-110.195	26.6928	44.3696	-103.277	6.96924	45.4297	-123.355	15.9492	-6.59076	-104.673	-1.21537	4.30736	-105.507	-0.704715	36.0879	-132.788	-0.215192	-6.38115	-113.508	-18.6938	7.7906	-111.892	-14.1381	40.8547	-145.055	-16.4197	-0.526962	-128.3	-26.2341	13.7215	-125.43	-19.7552	42.6541	-164.489	-18.0736	8.09252	-144.046	-29.5056	23.5116	-133.383	-17.1352	42.5941	-184.464	20.4882	2.94235	-199.95	37.7378	12.8024	-173.729	48.6273	3.14635	
45	0.375	-168.628	56.9281	30.2749	-138.919	55.8707	42.6676	-120.491	48.4674	47.2274	-102.488	39.5925	52.2188	-120.747	24.5782	-2.39522	-96.9604	17.705	11.4194	-92.8195	19.9528	38.8993	-121.65	5.00992	1.59831	-99.5207	-3.75249	20.838	-95.3484	3.09502	47.6133	-132.181	-7.52475	8.15743	-112.219	-12.4736	23.2925	-106.629	-2.80534	52.1599	-145.443	-21.9803	20.0628	-128.156	-24.5141	33.5255	-115.451	-13.1121	47.9449	-182.526	6.32957	9.07533	-204.213	22.0337	15.409	-182.465	38.6331	6.33605	
